# xmcd
#
# Track frame offsets:
#	150
#	20319
#	38976
#	55787
#	71041
#	87997
#	107938
#	130614
#	145156
#	161802
#	186396
#	204223
#	218925
#	241330
#
# Disc length: 3508 seconds
#
# Revision: 0
# Processed by: cddbd v1.5.1PL2 Copyright (c) Steve Scherf et al.
# Submitted via: dBpowerAMP V4.0
#
DISCID=c90db20e
DTITLE=Travis Collins - Start The Car
DYEAR=2005
DGENRE=Country
TTITLE0=Start The Car
TTITLE1=Slow Train Comin'
TTITLE2=1000 Memories
TTITLE3=Stop
TTITLE4=Its Just My Heart
TTITLE5=I was Wrong
TTITLE6=Maggie May
TTITLE7=My In-laws are Outlaws
TTITLE8=Just Another Night
TTITLE9=Step Inside This House
TTITLE10=A Fool Like Me
TTITLE11=Barbed Wire and Roses
TTITLE12=She Took The Ring
TTITLE13=Give It Time
EXTD=
EXTT0=
EXTT1=
EXTT2=
EXTT3=
EXTT4=
EXTT5=
EXTT6=
EXTT7=
EXTT8=
EXTT9=
EXTT10=
EXTT11=
EXTT12=
EXTT13=
PLAYORDER=
